<?xml version="1.0" encoding="UTF-8" standalone="no"?>
<!-- Created with Inkscape (http://www.inkscape.org/) -->

<svg
   width="116.43138mm"
   height="26.245071mm"
   viewBox="0 0 116.43138 26.245071"
   version="1.1"
   id="svg1"
   xmlns="http://www.w3.org/2000/svg"
   xmlns:svg="http://www.w3.org/2000/svg">
  <defs
     id="defs1" />
  <g
     id="layer1"
     transform="translate(-42.248427,-244.94666)">
    <path
       d="m 62.37724,247.69782 q 1.529595,1.22368 0.305919,2.14143 -2.447351,0.61185 -5.812459,0.91777 -0.305918,1.22367 0,3.05918 h 5.812459 q 2.447352,0 2.447352,1.22368 -0.30592,0.91775 -1.835514,1.22367 -3.365108,-0.30592 -6.424297,-0.30592 -0.305918,1.83552 0,3.67102 1.835513,0.30593 3.671027,-0.3059 0.611837,-0.30593 2.141432,0.61183 0.917756,1.22367 0.305919,2.14143 -0.611838,2.44735 -0.611838,4.28287 0,2.75327 -1.835513,2.75327 -0.305919,0 -0.611838,0 -4.282865,-1.22367 -7.953891,-0.61184 -0.917756,0.30592 -1.529594,0.61184 -1.529595,0.30591 -1.835513,-1.5296 0,-3.05919 -0.917757,-5.81245 -0.305919,-0.91777 0.305919,-1.5296 0.917756,-0.91775 1.835513,-0.61185 1.223676,0.30593 3.365107,0 0.30592,-2.14142 0,-3.67102 -8.259809,0.30592 -9.483484,1.22367 -0.917758,0.30593 -0.917758,-0.91775 1.529596,-3.05918 3.059189,-2.75327 1.223676,0.30592 7.342053,0.30592 0.30592,-2.14143 -0.305918,-2.75327 -4.894702,0.91776 -6.730215,-0.61183 -0.611838,-0.61185 0.305918,-0.91776 9.483486,-0.61184 13.460431,-2.44735 0.917757,-0.61184 2.447351,0.61183 z m -3.671027,14.68411 q -3.671026,-0.91775 -7.036133,0 -0.30592,3.67103 0.611838,3.67103 3.059188,0.30592 5.506539,0 1.529594,0.30592 0.917756,-3.67103 z m 10.401242,-9.17756 q -0.305918,3.3651 0,7.03613 0,0.91775 -0.305918,1.83551 -1.223675,0.91776 -1.835513,0.91776 -0.917758,0.30591 -0.917758,-0.91776 0.30592,-5.20061 0,-10.40124 0.30592,-1.5296 2.141433,-0.61184 0.305918,0.30592 0.917756,0.91776 0.30592,0.30591 0,1.22368 z m 7.647973,11.62491 q 0.611838,5.50655 -5.200622,5.81245 -4.588782,-0.3059 -6.424295,-3.05918 0,-0.61184 0.305918,-0.61184 3.059188,0.91777 5.506539,0.30592 1.835514,-0.61183 2.141433,-4.58878 0.611838,-7.9539 -0.917757,-13.76635 -0.917756,-2.14143 0.917757,-2.14143 3.059189,0.30592 3.365107,2.75327 -0.305918,1.22368 -0.305918,3.36511 -0.305919,5.81245 0.611838,11.93083 z m 24.779432,-17.13146 q 1.52959,1.22368 0.30591,2.14143 -2.447346,0.61185 -5.812453,0.91777 -0.30592,1.22367 0,3.05918 h 5.812453 q 2.44736,0 2.44736,1.22368 -0.30592,0.91775 -1.83552,1.22367 -3.365104,-0.30592 -6.424293,-0.30592 -0.30592,1.83552 0,3.67102 1.835513,0.30593 3.671026,-0.3059 0.611837,-0.30593 2.141427,0.61183 0.91776,1.22367 0.30592,2.14143 -0.61183,2.44735 -0.61183,4.28287 0,2.75327 -1.835517,2.75327 -0.305919,0 -0.611837,0 -4.282865,-1.22367 -7.953891,-0.61184 -0.917756,0.30592 -1.529594,0.61184 -1.529595,0.30591 -1.835513,-1.5296 0,-3.05919 -0.917758,-5.81245 -0.305918,-0.91777 0.30592,-1.5296 0.917756,-0.91775 1.835513,-0.61185 1.223676,0.30593 3.365107,0 0.305918,-2.14142 0,-3.67102 -8.259809,0.30592 -9.483484,1.22367 -0.917758,0.30593 -0.917758,-0.91775 1.529595,-3.05918 3.059189,-2.75327 1.223676,0.30592 7.342053,0.30592 0.305918,-2.14143 -0.305918,-2.75327 -4.894702,0.91776 -6.730215,-0.61183 -0.611838,-0.61185 0.305918,-0.91776 9.483484,-0.61184 13.460431,-2.44735 0.917754,-0.61184 2.447354,0.61183 z m -3.67103,14.68411 q -3.671027,-0.91775 -7.036133,0 -0.30592,3.67103 0.611837,3.67103 3.059188,0.30592 5.506539,0 1.529595,0.30592 0.917757,-3.67103 z m 10.40124,-9.17756 q -0.30592,3.3651 0,7.03613 0,0.91775 -0.30592,1.83551 -1.22367,0.91776 -1.83551,0.91776 -0.91776,0.30591 -0.91776,-0.91776 0.30592,-5.20061 0,-10.40124 0.30592,-1.5296 2.14143,-0.61184 0.30592,0.30592 0.91776,0.91776 0.30592,0.30591 0,1.22368 z m 7.64797,11.62491 q 0.61184,5.50655 -5.20062,5.81245 -4.58878,-0.3059 -6.42429,-3.05918 0,-0.61184 0.30592,-0.61184 3.05918,0.91777 5.50654,0.30592 1.83551,-0.61183 2.14143,-4.58878 0.61183,-7.9539 -0.91776,-13.76635 -0.91776,-2.14143 0.91776,-2.14143 3.05919,0.30592 3.36511,2.75327 -0.30592,1.22368 -0.30592,3.36511 -0.30592,5.81245 0.61183,11.93083 z m 22.02616,-6.11838 q 2.44735,0 2.44735,2.14143 h 10.70716 q 5.50655,0 7.03613,0.30592 -2.44735,4.28287 -5.50653,3.36511 -4.58878,-1.52959 -12.23676,-1.52959 v 5.20061 q 0,2.44735 -2.44735,2.44735 -1.22367,0 -1.5296,-1.22367 v -6.42429 q -8.56572,0 -13.1545,1.22368 -2.44735,0.91775 -2.14144,-1.22368 0.91776,-2.14144 2.75327,-2.14144 4.58879,0.61185 12.54267,0 0.30593,-2.14143 1.5296,-2.14143 z m -6.73021,5.81246 q 1.22368,-0.91776 2.44736,-0.30591 1.22367,2.44735 -2.44736,3.97693 -3.05919,1.5296 -6.11838,1.83552 -1.83551,0 -1.22368,-0.91775 4.58879,-1.83552 7.34206,-4.58879 z m 13.46042,0 q 2.14144,1.5296 7.34205,4.28287 1.5296,0.61183 0.30593,1.22367 -3.97695,0.30593 -8.87164,-2.44735 -1.83552,-1.22367 -0.61185,-3.05919 0.61185,-0.91776 1.83551,0 z m -5.50653,-15.60186 q 1.5296,0.30592 2.44735,-0.30593 2.14143,0 2.14143,1.5296 -0.61183,3.97695 -0.61183,7.64798 0,1.22367 -1.83552,0.61183 -3.05918,-0.61183 -6.11838,0 -1.52958,0.91777 -1.52958,-0.91775 0.3059,-3.67103 -0.30593,-7.95389 0,-1.22367 1.83551,-1.22367 1.5296,0.91775 2.14144,0.61183 0,-2.75328 0.61183,-3.05918 0.30593,-0.30593 1.5296,0.3059 0.91775,1.22368 -0.30592,2.75328 z m 1.22367,5.50655 q -1.8355,-0.30593 -3.97695,0 -0.61183,1.22367 0,2.14142 1.83553,-0.30592 3.97695,0 0.61185,-1.22367 0,-2.14142 z m 0,-3.67103 q -2.14142,-0.30592 -3.97695,0 -0.61183,0.91775 0,1.8355 2.14145,0.30593 4.28288,0 0.61183,-1.52959 -0.30593,-1.8355 z m -9.7894,-4.28287 q 0.91775,1.22367 -1.22368,2.44735 -1.52959,1.22367 -2.75327,2.14143 -0.91775,0.91776 2.14144,0.91776 1.22367,-0.91776 2.14143,-2.44735 0.91775,-0.91777 1.83551,0 0.91777,1.52959 -1.52959,3.05918 -3.36511,3.0592 -4.8947,4.58878 1.83551,1.5296 3.97694,-0.3059 -0.91776,-0.91777 -0.30592,-1.83552 0.91776,-0.91776 1.83551,0.30592 0.61185,0.91775 1.22368,2.14143 0.61185,1.83552 -0.91775,0.91775 l -0.61185,-0.61183 q -1.22367,1.5296 -3.05918,1.8355 -1.5296,0.30593 -2.75327,-0.61183 -1.5296,0.30593 -2.14143,-0.91775 0,-0.91777 0.30591,-1.5296 1.22368,-0.61184 3.67103,-3.3651 -1.22367,0 -2.75327,0.30591 -1.52959,-0.30591 -1.22367,-2.14143 2.14143,-1.5296 4.58878,-4.8947 1.22367,-1.22368 2.44735,0 z m 18.96696,-0.91776 q 1.83552,0.91776 0.91777,2.14143 -1.83552,2.14143 -3.36512,3.0592 -0.30591,1.22367 2.44735,0.61183 0.61185,-0.91775 1.5296,-2.14143 0.30592,-0.91775 1.5296,-0.30592 1.5296,0.91775 0.61183,1.83552 -3.67103,4.28286 -5.81246,6.11838 2.75328,1.8355 3.97695,-0.61185 -0.91775,-0.61183 -0.91775,-1.22367 0.91775,-1.5296 1.83551,-0.91776 1.83552,1.5296 2.44735,3.97695 0.30592,1.52958 -0.91776,0.61183 l -1.52959,-1.5296 q -0.30593,1.83552 -2.14143,2.14145 -2.14143,0.3059 -3.0592,-0.61185 -0.91775,-0.61183 -1.8355,-0.30592 -0.91776,0 -1.22368,-1.22368 0.30592,-0.61183 0.61183,-1.22367 1.5296,-0.30591 3.97695,-3.05918 -2.14143,0 -3.3651,0.30592 -1.83551,-0.30592 -1.22368,-2.14144 2.44735,-2.14143 3.97695,-4.58878 0.30591,-1.22368 1.52958,-0.91776 z"
       id="text4"
       style="font-size:25.4px;font-family:LiSu;-inkscape-font-specification:'LiSu, Normal';fill:none;stroke:#fb2502;stroke-width:1.1;stroke-linecap:square;stroke-linejoin:round;stroke-dasharray:none;paint-order:stroke fill markers"
       aria-label="刮刮樂" />
  </g>
</svg>
