<?xml version="1.0" encoding="UTF-8" standalone="no"?>
<!-- Created with Inkscape (http://www.inkscape.org/) -->

<svg
   width="116.43138mm"
   height="26.30098mm"
   viewBox="0 0 116.43138 26.30098"
   version="1.1"
   id="svg1"
   xmlns="http://www.w3.org/2000/svg"
   xmlns:svg="http://www.w3.org/2000/svg">
  <defs
     id="defs1" />
  <g
     id="layer1"
     transform="translate(-39.815876,-274.9783)">
    <path
       d="m 59.944683,277.72711 c 3.168098,4.25577 -9.424372,1.23758 -5.029129,6.11838 2.386981,0.11645 4.841605,-0.28077 7.170562,0.30592 1.73532,5.00268 -9.915819,-1.47266 -7.762692,4.58878 0.506208,2.47639 7.566747,-1.45233 6.233097,3.36511 -0.648064,2.81651 -0.127102,8.72756 -4.643753,6.64179 -3.362431,-2.07053 -10.100796,3.17349 -9.791794,-2.64572 -0.689734,-2.71762 -1.89265,-7.83772 2.73415,-6.29047 3.454333,0.86395 2.600664,-5.91663 -0.938072,-3.68775 -2.31922,-0.85115 -6.484801,2.34231 -7.551178,0.16969 1.245213,-5.40518 8.690042,-0.39174 10.496842,-3.42247 0.747642,-3.65722 -8.193225,0.42454 -6.825815,-3.30774 4.717853,-0.36443 9.570596,-0.71944 13.957549,-2.63855 0.740123,-0.0856 1.39882,0.38349 1.950233,0.80303 z m -3.671027,14.68411 c -3.068048,-1.24785 -9.549773,-0.59445 -6.424295,3.67103 2.988147,0.006 8.265351,1.48118 6.424295,-3.67103 z m 10.401242,-9.17756 c -0.793101,2.86761 1.768546,10.69509 -3.001829,9.38788 0.52462,-3.85075 -0.752685,-8.43997 0.630958,-11.83524 1.134343,-0.20302 3.037013,1.13093 2.370871,2.44736 z m 7.647973,11.62491 c 1.028379,3.9707 -3.304643,6.74841 -6.824621,5.6117 -2.507703,0.31582 -7.367208,-4.71075 -2.286026,-2.99704 5.430231,1.53068 5.807575,-4.8755 5.611699,-8.5992 0.656705,-3.98222 -1.5639,-8.35579 -0.917756,-11.93083 5.908484,-0.77414 3.382276,6.19904 3.733166,9.6472 0.03568,2.76756 0.272884,5.53141 0.683538,8.26817 z m 24.779432,-17.13146 c 3.168077,4.25577 -9.424373,1.23759 -5.029132,6.11838 2.38698,0.11645 4.841603,-0.28077 7.170559,0.30592 1.73532,5.00268 -9.915817,-1.47265 -7.76269,4.58878 0.50621,2.47639 7.56674,-1.45233 6.233093,3.36511 -0.648052,2.81652 -0.127098,8.72756 -4.643748,6.64179 -3.362431,-2.07053 -10.100796,3.17349 -9.791794,-2.64572 -0.689735,-2.71762 -1.892649,-7.83772 2.73415,-6.29047 3.454331,0.86395 2.600664,-5.91663 -0.938072,-3.68775 -2.31922,-0.85115 -6.484801,2.34231 -7.551178,0.16969 1.245212,-5.40518 8.690043,-0.39174 10.496841,-3.42247 0.747643,-3.65722 -8.193225,0.42454 -6.825814,-3.30774 4.717853,-0.36443 9.570596,-0.71944 13.957549,-2.63855 0.740123,-0.0856 1.398821,0.38349 1.950236,0.80303 z m -3.67103,14.68411 c -3.068048,-1.24785 -9.549772,-0.59445 -6.424296,3.67103 2.988147,0.006 8.265352,1.48118 6.424296,-3.67103 z m 10.401237,-9.17756 c -0.79311,2.86761 1.76855,10.69509 -3.00183,9.38788 0.52462,-3.85075 -0.75268,-8.43997 0.63096,-11.83524 1.13434,-0.20301 3.03702,1.13094 2.37087,2.44736 z m 7.64797,11.62491 c 1.02838,3.9707 -3.30464,6.74841 -6.82462,5.6117 -2.5077,0.31582 -7.367199,-4.71075 -2.28602,-2.99704 5.43023,1.53068 5.80758,-4.8755 5.6117,-8.5992 0.6567,-3.98222 -1.56391,-8.35579 -0.91776,-11.93083 5.90849,-0.77415 3.38228,6.19904 3.73317,9.6472 0.0357,2.76756 0.27288,5.5314 0.68353,8.26817 z m 22.02616,-6.11838 c 2.34014,0.64727 2.77609,3.00889 5.78923,2.14143 4.79988,0.0728 9.62221,-0.20885 14.40141,0.30592 -2.05327,5.38737 -7.56686,2.58519 -11.63686,2.12829 -2.78708,-0.14003 -7.28411,-1.59854 -6.10643,2.5717 0.6043,2.38285 -1.03183,6.46844 -3.76663,4.09518 -0.46751,-2.24462 -0.0871,-4.64983 -0.21032,-6.95965 -4.76425,0.0217 -9.59793,0.1896 -14.2061,1.49135 -3.29318,-1.5545 1.89436,-4.91623 4.16814,-3.40335 3.99658,-0.28402 9.63301,1.38949 11.56756,-2.37087 z m -6.73021,5.81246 c 4.2638,-2.26068 2.63624,4.28358 -0.7648,4.0343 -1.22243,0.81969 -7.79971,2.59577 -6.01083,0.32147 2.4812,-1.05138 4.85864,-2.44122 6.77563,-4.35577 z m 13.46042,0 c 1.86373,2.15987 7.91098,3.15223 7.64798,5.50654 -3.49024,0.0105 -7.86324,-0.8648 -9.94236,-3.82398 -0.24294,-1.27328 1.05067,-2.97954 2.29438,-1.68256 z m -5.50653,-15.60186 c 2.84855,-0.79132 5.67402,0.26189 4.26613,3.67939 -0.3741,2.71697 0.76443,7.70682 -3.65429,5.57465 -3.32469,-0.15183 -7.64044,1.79117 -6.018,-3.52762 -0.17382,-2.71736 -1.39855,-8.22998 3.20737,-5.64994 0.30245,-1.05078 0.95519,-5.15628 2.82974,-2.1988 0.23378,0.76192 -0.16249,1.54843 -0.63095,2.12232 z m 1.22367,5.50655 c -1.99137,-1.27957 -6.49109,1.22931 -3.04006,2.0267 1.6655,-0.21421 4.39185,0.91309 3.04006,-2.0267 z m 0,-3.67103 c -1.89385,-1.07283 -6.52746,0.94937 -2.90623,1.95022 1.36866,0.15985 4.98245,0.23869 2.90623,-1.95022 z m -9.7894,-4.28287 c 1.37899,2.59355 -7.77976,5.29067 -1.83551,5.50654 0.9155,-1.94176 5.05547,-4.63006 3.80965,-0.53536 -1.42904,1.94104 -6.96247,4.51827 -5.32013,6.29045 2.30381,0.59503 3.07872,-0.91576 2.73415,-2.6959 2.26741,-1.97172 4.66249,5.9538 1.52959,2.75327 -1.81267,3.90763 -11.58673,0.99466 -6.11837,-2.37087 1.3678,-1.16701 3.11578,-2.92331 0.13384,-2.04584 -4.94095,-0.74068 1.56885,-4.6732 2.61943,-6.90229 0.61404,-0.79136 1.83331,-0.79135 2.44735,0 z m 18.96696,-0.91776 c 4.45843,1.96799 -6.56805,6.65569 0,5.81246 0.24293,-2.47129 4.49424,-3.79159 3.67103,-0.61183 -1.25153,2.25112 -5.56754,4.78405 -5.14804,6.51034 1.61679,1.28017 4.51138,-0.7398 2.39478,-2.22748 2.02377,-4.29116 6.43981,6.08762 2.85873,3.16465 -1.4987,-2.57509 -2.26929,2.79671 -5.00016,1.1182 -2.18043,-0.60932 -6.57877,-1.96721 -2.39478,-3.93869 2.0751,-1.29588 3.71326,-3.37056 0.005,-2.31351 -5.06526,-0.70316 1.94725,-5.00949 2.61943,-7.43766 l 0.43975,-0.13384 z"
       id="path7"
       style="font-size:25.4px;font-family:LiSu;-inkscape-font-specification:'LiSu, Normal';fill:none;stroke:#fb2502;stroke-width:1.1;stroke-linecap:square;stroke-linejoin:round;stroke-dasharray:none;paint-order:stroke fill markers"
       aria-label="刮刮樂" />
  </g>
</svg>
